<svg width="24" height="30" viewBox="0 0 24 30" fill="none" xmlns="http://www.w3.org/2000/svg">
<path d="M8.41245 12.3557C8.41224 11.6912 8.62621 11.0443 9.02262 10.5109C9.41904 9.97759 9.97678 9.5862 10.6132 9.39482C11.2495 9.20343 11.9306 9.22224 12.5555 9.44845C13.1803 9.67466 13.7156 10.0962 14.082 10.6506L21.9169 6.81641C20.8506 4.40603 18.9852 2.43743 16.6357 1.243C14.2861 0.04856 11.5964 -0.298547 9.02064 0.260282C6.44485 0.81911 4.14079 2.24964 2.49747 4.31034C0.854157 6.37104 -0.0277448 8.93567 0.000665569 11.5712C0.0212323 13.2724 0.543235 15.0656 1.37178 16.8676L8.57209 13.3419C8.46573 13.024 8.41181 12.6909 8.41245 12.3557V12.3557Z" fill="#0BA5FF"/>
<path d="M22.245 7.56465L14.4336 11.4028C14.533 11.71 14.5836 12.0309 14.5834 12.3538C14.5832 12.6056 14.5526 12.8565 14.4923 13.101L21.722 16.9773C22.5378 15.1166 23.0285 13.2636 23.0069 11.5252C22.9825 10.171 22.7247 8.83123 22.245 7.56465V7.56465Z" fill="#0071B2"/>
<path d="M14.1848 13.8992C13.9226 14.3572 13.5474 14.7405 13.095 15.0123C12.6426 15.2842 12.1281 15.4357 11.6005 15.4523C11.073 15.4689 10.55 15.3501 10.0814 15.1072C9.61277 14.8643 9.21421 14.5054 8.92368 14.0647L1.69106 17.5552C4.00334 22.3061 8.43008 27.0306 11.7932 30C14.9801 27.0433 19.1287 22.4138 21.3803 17.7579L14.1848 13.8992Z" fill="#1C5682"/>
</svg>
