<svg width="80" height="80" viewBox="0 0 80 80" fill="none" xmlns="http://www.w3.org/2000/svg">
<g filter="url(#filter0_dd_460_13551)">
<circle cx="40" cy="38" r="32" fill="white"/>
<circle cx="40" cy="38" r="31" stroke="#0071B3" stroke-width="2"/>
</g>
<path d="M35.4381 50.2065C35.4614 50.0204 35.4789 49.8342 35.4789 49.6364C35.4789 49.4385 35.4614 49.2524 35.4381 49.0662L36.6658 48.1062C36.7763 48.0189 36.8054 47.8618 36.7356 47.7338L35.572 45.7207C35.5021 45.5927 35.345 45.5462 35.217 45.5927L33.7683 46.1745C33.4658 45.9418 33.14 45.7498 32.785 45.6044L32.564 44.0625C32.5465 43.9229 32.4243 43.8182 32.2789 43.8182H29.9516C29.8061 43.8182 29.684 43.9229 29.6665 44.0625L29.4454 45.6044C29.0905 45.7498 28.7647 45.9476 28.4621 46.1745L27.0134 45.5927C26.8796 45.5404 26.7283 45.5927 26.6585 45.7207L25.4949 47.7338C25.4192 47.8618 25.4541 48.0189 25.5647 48.1062L26.7923 49.0662C26.769 49.2524 26.7516 49.4444 26.7516 49.6364C26.7516 49.8284 26.769 50.0204 26.7923 50.2065L25.5647 51.1665C25.4541 51.2538 25.425 51.4109 25.4949 51.5389L26.6585 53.552C26.7283 53.68 26.8854 53.7265 27.0134 53.68L28.4621 53.0982C28.7647 53.3309 29.0905 53.5229 29.4454 53.6684L29.6665 55.2102C29.684 55.3498 29.8061 55.4545 29.9516 55.4545H32.2789C32.4243 55.4545 32.5465 55.3498 32.564 55.2102L32.785 53.6684C33.14 53.5229 33.4658 53.3251 33.7683 53.0982L35.217 53.68C35.3509 53.7324 35.5021 53.68 35.572 53.552L36.7356 51.5389C36.8054 51.4109 36.7763 51.2538 36.6658 51.1665L35.4381 50.2065ZM31.1152 51.6727C29.9923 51.6727 29.0789 50.7593 29.0789 49.6364C29.0789 48.5135 29.9923 47.6 31.1152 47.6C32.2381 47.6 33.1516 48.5135 33.1516 49.6364C33.1516 50.7593 32.2381 51.6727 31.1152 51.6727Z" fill="#002033"/>
<path fill-rule="evenodd" clip-rule="evenodd" d="M36.4049 17.6364H32.5939L31.4689 20.6365C30.0175 21.0893 28.7059 21.8588 27.6148 22.8641L24.4509 22.3378L22.5455 25.6382L24.5815 28.113C24.4214 28.8295 24.3369 29.5746 24.3369 30.3394C24.3369 31.1043 24.4214 31.8494 24.5816 32.566L22.5456 35.0408L24.451 38.3411L27.615 37.8148C28.706 38.82 30.0175 39.5895 31.4688 40.0423L32.5939 43.0425H36.4048L37.5299 40.0423C38.9811 39.5895 40.2926 38.8201 41.3835 37.8149L44.5478 38.3413L46.4533 35.0409L44.4171 32.5659C44.5773 31.8494 44.6618 31.1042 44.6618 30.3394C44.6618 29.5745 44.5773 28.8294 44.4171 28.1128L46.4532 25.6379L44.5477 22.3375L41.3835 22.8638C40.2926 21.8587 38.9811 21.0893 37.5299 20.6365L36.4049 17.6364ZM39.5808 30.3396C39.5808 33.1459 37.3058 35.4208 34.4996 35.4208C31.6933 35.4208 29.4183 33.1459 29.4183 30.3396C29.4183 27.5333 31.6933 25.2584 34.4996 25.2584C37.3058 25.2584 39.5808 27.5333 39.5808 30.3396Z" fill="#002033"/>
<path fill-rule="evenodd" clip-rule="evenodd" d="M48.4726 35.4205H51.0132L51.9703 38.2916C53.0926 38.634 54.1051 39.2285 54.9416 40.009L57.9086 39.4018L59.1789 41.6021L57.171 43.8665C57.2979 44.4181 57.365 44.9927 57.365 45.5829C57.365 46.1731 57.2979 46.7475 57.171 47.2991L59.1793 49.564L57.909 51.7642L54.9415 51.157C54.105 51.9374 53.0926 52.5318 51.9703 52.8742L51.0132 55.7455H48.4726L47.5154 52.874C46.3933 52.5316 45.3811 51.9372 44.5447 51.1569L41.5772 51.7641L40.3069 49.5639L42.3153 47.299C42.1884 46.7474 42.1214 46.173 42.1214 45.5829C42.1214 44.9927 42.1885 44.4182 42.3154 43.8665L40.3072 41.6018L41.5775 39.4015L44.545 40.0088C45.3813 39.2285 46.3935 38.6342 47.5155 38.2918L48.4726 35.4205ZM52.2836 45.5832C52.2836 46.9863 51.1461 48.1238 49.743 48.1238C48.3399 48.1238 47.2024 46.9863 47.2024 45.5832C47.2024 44.18 48.3399 43.0425 49.743 43.0425C51.1461 43.0425 52.2836 44.18 52.2836 45.5832Z" fill="#002033"/>
<defs>
<filter id="filter0_dd_460_13551" x="0" y="0" width="80" height="80" filterUnits="userSpaceOnUse" color-interpolation-filters="sRGB">
<feFlood flood-opacity="0" result="BackgroundImageFix"/>
<feColorMatrix in="SourceAlpha" type="matrix" values="0 0 0 0 0 0 0 0 0 0 0 0 0 0 0 0 0 0 127 0" result="hardAlpha"/>
<feOffset dy="2"/>
<feGaussianBlur stdDeviation="4"/>
<feColorMatrix type="matrix" values="0 0 0 0 0 0 0 0 0 0.12549 0 0 0 0 0.2 0 0 0 0.16 0"/>
<feBlend mode="normal" in2="BackgroundImageFix" result="effect1_dropShadow_460_13551"/>
<feColorMatrix in="SourceAlpha" type="matrix" values="0 0 0 0 0 0 0 0 0 0 0 0 0 0 0 0 0 0 127 0" result="hardAlpha"/>
<feOffset dy="2"/>
<feGaussianBlur stdDeviation="1"/>
<feColorMatrix type="matrix" values="0 0 0 0 0 0 0 0 0 0.12549 0 0 0 0 0.2 0 0 0 0.02 0"/>
<feBlend mode="normal" in2="effect1_dropShadow_460_13551" result="effect2_dropShadow_460_13551"/>
<feBlend mode="normal" in="SourceGraphic" in2="effect2_dropShadow_460_13551" result="shape"/>
</filter>
</defs>
</svg>
